# xmcd
#
# Track frame offsets:
#	150
#	11310
#	22542
#	38295
#	49356
#	65145
#	78678
#	99865
#	115620
#	131415
#	145392
#	158420
#	171149
#	180393
#	190910
#	202847
#	217335
#	229976
#	241780
#	253347
#	263875
#
# Disc length: 3651 seconds
#
# Revision: 0
# Processed by: cddbd v1.5.2PL0 Copyright (c) Steve Scherf et al.
# Submitted via: EasyCDDAExtractor 2010.3.0.0
#
DISCID=130e4115
DTITLE=Robbins Marty - Have I Told You Lately That I Love You/I've Got A Woman
DTITLE='s Love
DYEAR=1900
DGENRE=
TTITLE0=I've Got A Woman's Love
TTITLE1=It Had To Be You
TTITLE2=I'm In The Mood For Love
TTITLE3=Janet
TTITLE4=Misty
TTITLE5=Best Part Of Living
TTITLE6=City
TTITLE7=Don't Throw Me Away
TTITLE8=Gone With The Wind
TTITLE9=At Times
TTITLE10=Little Spot In Heaven
TTITLE11=Tonight Carmen
TTITLE12=Moanin' The Blues
TTITLE13=I'll Step Aside
TTITLE14=Gardenias In Her Hair
TTITLE15=Have I Told You Lately That I Love You
TTITLE16=I'm So Lonesome I Could Cry
TTITLE17=Lovesick Blues
TTITLE18=You Only Want Me When You're Lonely
TTITLE19=I Hang My Head And Cry
TTITLE20=Love's Gone Away
EXTD=
EXTT0=
EXTT1=
EXTT2=
EXTT3=
EXTT4=
EXTT5=
EXTT6=
EXTT7=
EXTT8=
EXTT9=
EXTT10=
EXTT11=
EXTT12=
EXTT13=
EXTT14=
EXTT15=
EXTT16=
EXTT17=
EXTT18=
EXTT19=
EXTT20=
PLAYORDER=
